# xmcd
#
# Track frame offsets:
#	150
#	12297
#	27104
#	49659
#	63024
#	78697
#	98002
#	116248
#	131034
#	148660
#	168651
#	190012
#
# Disc length: 2714 seconds
#
# Revision: 3
# Processed by: cddbd v1.5.2PL0 Copyright (c) Steve Scherf et al.
# Submitted via: audiograbber 1.81.03
#
DISCID=9f0a980c
DTITLE=Rick Fines and Suzie Vinnick - Nothing Halfway
DYEAR=2006
DGENRE=Blues
TTITLE0=We Got a Love Like That
TTITLE1=The Lucky One
TTITLE2=Love Is Our Cross to Bear
TTITLE3=Nothing Halfway
TTITLE4=Calling Out Your Name
TTITLE5=Fool In Love
TTITLE6=Love in a Bottle
TTITLE7=How'd You Know I Missed You
TTITLE8=Souvenirs
TTITLE9=He'll Never Know
TTITLE10=Slow Down Mama
TTITLE11=Don't Let Your Dreams Drift Away
EXTD=
EXTT0=
EXTT1=
EXTT2=
EXTT3=
EXTT4=
EXTT5=
EXTT6=
EXTT7=
EXTT8=
EXTT9=
EXTT10=
EXTT11=
PLAYORDER=
